<svg xmlns="http://www.w3.org/2000/svg" viewBox="0 0 137 30"><path fill="var(--token-4747eb2a-e9dc-414b-bf73-95689f8fe721, rgb(255, 139, 83)) /* {&quot;name&quot;:&quot;Orange&quot;} */" d="M29.278 14.725c0 4.278-1.816 8.145-4.728 10.835h-3.513c.076-.346-.107-.583-.344-.745-.494-.346-.805-.919-.73-1.513.193-1.566 1.139-3.565 4.588-5.401 2.331-1.253 2.761-3.835 2.922-4.213.237-.627.172-1.157-.322-1.664-.892-.919-1.859-1.75-3.03-2.291-1.644-.777-3.32-.734-4.985-.108-.29.108-.226-.119-.247-.216a11.448 11.448 0 0 0-1.139-3.154c-1.085-1.966-2.6-3.414-4.857-3.9-.333-.076-.677-.097-1.02-.141-.162-.021-.248.022-.204.217.3 1.447.719 2.841 1.632 4.029.42.551.989.918 1.548 1.296.591.411 1.214.789 1.773 1.254.526.453.956.983 1.16 1.739-.075-.076-.108-.097-.129-.13-1.719-2.744-5.082-3.954-8.466-2.96-.312.087-.269.195-.119.421.978 1.513 2.321 2.593 3.911 3.425 1.182.616 2.407 1.124 3.739 1.296.602.076.312.487.408.973.129.756.441.994.334.929-2.042-.821-3.739-1.145-5.147-1.145-5.813 0-6.758 5.574-6.715 5.639-.086-.032-1.483-.551-1.794.853-.323 1.426 1.579 2.355 1.579 2.355.247-1.685 1.751-2.052 1.934-2.095-.15.086-1.128.658-1.429 2.225-.258 1.383.827 2.603 1.236 3.025H4.717A14.746 14.746 0 0 1 0 14.725C0 6.59 6.543 0 14.634 0c8.09 0 14.644 6.59 14.644 14.725ZM18.641 25.56h-1.547a.577.577 0 0 0 .15-.303c.129-.756-.515-.907-.515-.907h-3.567s1.418-.065 2.718-.605c1.289-.551 2.331-1.513 2.514-1.772-.602 1.426-.311 2.625-.065 3.23a.678.678 0 0 0 .312.357ZM41.225 22.24c-1.379 0-2.599-.307-3.66-.92a6.868 6.868 0 0 1-2.487-2.56c-.596-1.093-.895-2.347-.895-3.76 0-1.413.299-2.66.895-3.74a6.675 6.675 0 0 1 2.487-2.56c1.061-.627 2.281-.94 3.66-.94 1.008 0 1.929.18 2.765.54.849.347 1.578.84 2.188 1.48A6.665 6.665 0 0 1 47.61 12l-3.004 1.02a3.84 3.84 0 0 0-.815-1.22 3.46 3.46 0 0 0-1.154-.8 3.463 3.463 0 0 0-1.412-.28c-.729 0-1.379.18-1.95.54-.57.36-1.014.867-1.332 1.52-.318.64-.478 1.38-.478 2.22 0 .84.16 1.587.478 2.24a3.94 3.94 0 0 0 1.352 1.52c.584.36 1.247.54 1.989.54.544 0 1.028-.1 1.453-.3.424-.2.789-.48 1.094-.84.318-.36.59-.773.815-1.24l3.004 1.02a6.564 6.564 0 0 1-1.413 2.26 6.69 6.69 0 0 1-2.208 1.5c-.848.36-1.783.54-2.804.54Zm11.846 0c-1.047 0-1.969-.22-2.765-.66a5.07 5.07 0 0 1-1.889-1.86c-.451-.787-.677-1.693-.677-2.72 0-1.027.219-1.933.657-2.72a4.78 4.78 0 0 1 1.87-1.84c.809-.453 1.724-.68 2.745-.68 1.047 0 1.969.227 2.764.68a4.609 4.609 0 0 1 1.87 1.84c.451.787.676 1.693.676 2.72 0 1.027-.225 1.933-.676 2.72a4.773 4.773 0 0 1-1.85 1.86c-.795.44-1.704.66-2.725.66Zm0-2.88c.398 0 .75-.1 1.054-.3.319-.2.564-.473.736-.82.186-.36.279-.773.279-1.24 0-.467-.093-.873-.279-1.22a1.965 1.965 0 0 0-.736-.84 2.01 2.01 0 0 0-1.094-.3c-.411 0-.775.1-1.094.3-.318.2-.57.48-.755.84-.173.347-.259.753-.259 1.22 0 .467.086.88.259 1.24.185.347.437.62.755.82.332.2.71.3 1.134.3ZM65.981 22l-.139-1.86V8h3.103v14Zm-2.963.24c-.929 0-1.731-.207-2.407-.62-.663-.427-1.181-1.033-1.552-1.82-.358-.787-.537-1.72-.537-2.8 0-1.093.179-2.027.537-2.8.371-.787.889-1.387 1.552-1.8.676-.427 1.478-.64 2.407-.64.822 0 1.511.213 2.068.64.57.413.995 1.013 1.273 1.8.279.773.418 1.707.418 2.8 0 1.08-.139 2.013-.418 2.8-.278.787-.703 1.393-1.273 1.82-.557.413-1.246.62-2.068.62Zm.815-2.88c.384 0 .729-.1 1.034-.3.305-.2.544-.473.716-.82.173-.36.259-.773.259-1.24 0-.467-.086-.873-.259-1.22a2.018 2.018 0 0 0-.716-.84c-.305-.2-.656-.3-1.054-.3s-.749.1-1.054.3c-.305.2-.551.48-.736.84-.173.347-.265.753-.279 1.22.014.467.106.88.279 1.24.185.347.431.62.736.82.318.2.676.3 1.074.3Zm11.111 2.88c-1.034 0-1.949-.22-2.745-.66a4.794 4.794 0 0 1-1.87-1.84c-.45-.787-.676-1.7-.676-2.74 0-1.04.226-1.953.676-2.74a4.794 4.794 0 0 1 1.87-1.84c.809-.44 1.737-.66 2.785-.66.942 0 1.79.227 2.546.68.756.453 1.353 1.133 1.79 2.04.451.893.677 2 .677 3.32h-7.479l.338-.38c0 .453.093.853.278 1.2.186.347.444.613.776.8.332.173.703.26 1.114.26.491 0 .902-.107 1.233-.32a1.83 1.83 0 0 0 .696-.84l2.765.94a4.048 4.048 0 0 1-1.134 1.58 4.67 4.67 0 0 1-1.651.92 6.884 6.884 0 0 1-1.989.28Zm-2.009-6.1-.318-.42h4.456l-.299.42c0-.507-.099-.9-.298-1.18a1.777 1.777 0 0 0-.736-.64 1.968 1.968 0 0 0-.855-.2c-.292 0-.59.067-.896.2a1.917 1.917 0 0 0-.755.64c-.199.28-.299.673-.299 1.18ZM80.843 22V8h5.47c1.008 0 1.903.2 2.686.6a4.389 4.389 0 0 1 1.83 1.64c.451.693.676 1.493.676 2.4 0 .907-.225 1.713-.676 2.42-.451.707-1.074 1.26-1.87 1.66-.782.387-1.684.58-2.705.58h-2.208V22Zm7.559 0-3.143-5.56 2.407-1.78L92.062 22Zm-4.356-7.66h2.168c.371 0 .703-.073.995-.22.291-.147.517-.347.676-.6.171-.261.261-.567.258-.88 0-.493-.185-.9-.556-1.22-.359-.32-.836-.48-1.433-.48h-2.108ZM98.632 22l-.099-2.16v-2.82c0-.533-.047-1-.14-1.4-.079-.4-.245-.707-.497-.92-.239-.227-.59-.34-1.054-.34-.371 0-.696.087-.975.26a2.395 2.395 0 0 0-.716.7l-2.725-.9a5.18 5.18 0 0 1 .935-1.34c.398-.4.882-.72 1.452-.96s1.233-.36 1.989-.36c1.034 0 1.91.193 2.626.58a3.793 3.793 0 0 1 1.611 1.62c.358.693.537 1.513.537 2.46l-.04 5.58Zm-2.725.24c-1.167 0-2.075-.26-2.725-.78-.65-.533-.975-1.293-.975-2.28 0-1.053.338-1.84 1.015-2.36.676-.52 1.624-.78 2.844-.78h2.725v2.02H97.22c-.65 0-1.121.093-1.412.28a.833.833 0 0 0-.438.76c0 .24.106.433.318.58.226.133.531.2.915.2.385 0 .716-.08.995-.24.291-.173.517-.4.676-.68.172-.28.259-.58.259-.9h.795c0 1.32-.285 2.347-.855 3.08-.557.733-1.412 1.1-2.566 1.1Zm6.764-.24V8h3.103v12.14l-.159 1.86Zm5.927.24c-.822 0-1.511-.207-2.068-.62-.557-.427-.975-1.033-1.254-1.82-.278-.787-.417-1.72-.417-2.8 0-1.093.139-2.027.417-2.8.279-.787.697-1.387 1.254-1.8.557-.427 1.246-.64 2.068-.64.928 0 1.731.213 2.407.64.676.413 1.194 1.013 1.552 1.8.358.773.537 1.707.537 2.8 0 1.08-.179 2.013-.537 2.8-.358.787-.876 1.393-1.552 1.82-.676.413-1.479.62-2.407.62Zm-.795-2.88c.397 0 .749-.1 1.054-.3.305-.2.55-.473.736-.82.186-.36.278-.773.278-1.24 0-.467-.086-.873-.258-1.22a1.978 1.978 0 0 0-.736-.84 1.88 1.88 0 0 0-1.055-.3c-.397 0-.755.1-1.074.3-.305.2-.543.48-.716.84-.172.36-.258.767-.258 1.22 0 .467.086.88.258 1.24.173.347.411.62.716.82.305.2.657.3 1.055.3Zm5.999 2.64V8h3.103v12.14l-.159 1.86Zm5.928.24c-.823 0-1.512-.207-2.069-.62-.557-.427-.975-1.033-1.253-1.82-.279-.787-.418-1.72-.418-2.8 0-1.093.139-2.027.418-2.8.278-.787.696-1.387 1.253-1.8.557-.427 1.246-.64 2.069-.64.928 0 1.73.213 2.406.64.677.413 1.194 1.013 1.552 1.8.358.773.537 1.707.537 2.8 0 1.08-.179 2.013-.537 2.8-.358.787-.875 1.393-1.552 1.82-.676.413-1.478.62-2.406.62Zm-.796-2.88c.398 0 .749-.1 1.054-.3.305-.2.55-.473.736-.82.186-.36.279-.773.279-1.24 0-.467-.087-.873-.259-1.22a1.978 1.978 0 0 0-.736-.84c-.305-.2-.656-.3-1.054-.3s-.756.1-1.074.3c-.305.2-.544.48-.716.84-.173.36-.259.767-.259 1.22 0 .467.086.88.259 1.24.172.347.411.62.716.82.305.2.656.3 1.054.3Zm6.178 2.64V12h3.103v10Zm1.552-11.28c-.464 0-.876-.173-1.234-.52-.344-.36-.517-.773-.517-1.24 0-.493.173-.907.517-1.24.358-.347.77-.52 1.234-.52.477 0 .888.173 1.233.52.345.333.517.747.517 1.24 0 .467-.172.88-.517 1.24-.345.347-.756.52-1.233.52Zm7.247 11.52c-1.18 0-2.062-.28-2.645-.84-.57-.573-.855-1.387-.855-2.44V8.88h3.103v9.3c0 .4.072.693.218.88.146.187.372.28.677.28.119 0 .258-.027.417-.08.154-.064.301-.144.438-.24l1.074 2.28a4.401 4.401 0 0 1-1.154.68c-.437.173-.862.26-1.273.26Zm-5.052-7.62V12h6.922v2.62Z"/></svg>